<svg width="18" height="25" viewBox="0 0 18 25" fill="none" xmlns="http://www.w3.org/2000/svg">
<path d="M9 0L7.875 1.27582C7.875 1.27582 5.955 3.47813 4.02 6.33354C2.085 9.18894 0 12.6063 0 15.887C0 18.3039 0.948212 20.6218 2.63604 22.3309C4.32387 24.0399 6.61305 25 9 25C11.3869 25 13.6761 24.0399 15.364 22.3309C17.0518 20.6218 18 18.3039 18 15.887C18 12.6063 15.915 9.18894 13.98 6.33354C12.045 3.47813 10.125 1.27582 10.125 1.27582L9 0ZM9 4.75395C9.66 5.54374 10.26 6.19684 11.52 8.04982C13.335 10.723 15 14.1252 15 15.887C15 19.2588 12.33 21.9623 9 21.9623C5.67 21.9623 3 19.2588 3 15.887C3 14.1252 4.665 10.723 6.48 8.04982C7.74 6.19684 8.34 5.54374 9 4.75395Z" fill="white"/>
</svg>
