<svg width="20" height="28" viewBox="0 0 20 28" fill="none" xmlns="http://www.w3.org/2000/svg">
<path d="M11.505 14L19.665 6.747C19.8164 6.61221 19.9234 6.43456 19.9715 6.23762C20.0197 6.04067 20.0069 5.83374 19.9347 5.64425C19.8626 5.45476 19.7346 5.29168 19.5677 5.17662C19.4007 5.06156 19.2027 4.99996 19 5H16V0H14V7H16.37L9.99999 12.662L3.62999 7H5.99999V0H3.99999V5H0.999993C0.797242 4.99996 0.599271 5.06156 0.432329 5.17662C0.265388 5.29168 0.137365 5.45476 0.0652363 5.64425C-0.00689237 5.83374 -0.0197189 6.04067 0.0284578 6.23762C0.0766346 6.43456 0.183538 6.61221 0.334993 6.747L8.49499 14L0.334993 21.253C0.183538 21.3878 0.0766346 21.5654 0.0284578 21.7624C-0.0197189 21.9593 -0.00689237 22.1663 0.0652363 22.3558C0.137365 22.5452 0.265388 22.7083 0.432329 22.8234C0.599271 22.9384 0.797242 23 0.999993 23H3.99999V28H5.99999V21H3.62999L9.99999 15.338L16.37 21H14V28H16V23H19C19.2027 22.9998 19.4005 22.9381 19.5673 22.823C19.7341 22.7078 19.8619 22.5447 19.9339 22.3553C20.0059 22.1658 20.0187 21.959 19.9705 21.7621C19.9223 21.5653 19.8154 21.3877 19.664 21.253L11.505 14Z" fill="white"/>
</svg>
