<svg width="14" height="25" viewBox="0 0 14 25" fill="none" xmlns="http://www.w3.org/2000/svg">
<path d="M8.75034 18.75C8.75034 19.494 8.49516 20.1265 7.98481 20.6473C7.47446 21.1682 6.85474 21.4286 6.12567 21.4286C5.39659 21.4286 4.77688 21.1682 4.26653 20.6473C3.75617 20.1265 3.501 19.494 3.501 18.75C3.501 18.192 3.66048 17.6804 3.97945 17.2154C4.29842 16.7504 4.7222 16.4202 5.25078 16.2249V7.14286H7.00056V16.2249C7.52914 16.4202 7.95291 16.7504 8.27188 17.2154C8.59086 17.6804 8.75034 18.192 8.75034 18.75ZM10.5001 18.75C10.5001 18.0339 10.3452 17.3642 10.0353 16.7411C9.72548 16.1179 9.29715 15.5971 8.75034 15.1786V4.46429C8.75034 3.72024 8.49516 3.0878 7.98481 2.56696C7.47446 2.04613 6.85474 1.78571 6.12567 1.78571C5.39659 1.78571 4.77688 2.04613 4.26653 2.56696C3.75617 3.0878 3.501 3.72024 3.501 4.46429V15.1786C2.95419 15.5971 2.52586 16.1179 2.216 16.7411C1.90614 17.3642 1.75122 18.0339 1.75122 18.75C1.75122 19.987 2.17727 21.0403 3.02938 21.9099C3.88148 22.7795 4.91358 23.2143 6.12567 23.2143C7.33776 23.2143 8.36985 22.7795 9.22196 21.9099C10.0741 21.0403 10.5001 19.987 10.5001 18.75ZM12.2499 18.75C12.2499 20.4706 11.6507 21.9424 10.4523 23.1655C9.25386 24.3885 7.81166 25 6.12567 25C4.43968 25 2.99748 24.3885 1.79906 23.1655C0.600643 21.9424 0.00143433 20.4706 0.00143433 18.75C0.00143433 17.0573 0.584695 15.6017 1.75122 14.3834V4.46429C1.75122 3.22731 2.17727 2.17401 3.02938 1.30441C3.88148 0.434803 4.91358 0 6.12567 0C7.33776 0 8.36985 0.434803 9.22196 1.30441C10.0741 2.17401 10.5001 3.22731 10.5001 4.46429V14.3834C11.6666 15.6017 12.2499 17.0573 12.2499 18.75ZM13.9997 10.7143V12.5H11.375V10.7143H13.9997ZM13.9997 7.14286V8.92857H11.375V7.14286H13.9997ZM13.9997 3.57143V5.35714H11.375V3.57143H13.9997Z" fill="white"/>
</svg>
