<svg width="29" height="23" viewBox="0 0 29 23" fill="none" xmlns="http://www.w3.org/2000/svg">
<path d="M0.00192261 14.7249C0.00192261 14.424 0.120251 14.1456 0.356908 13.8899C0.623147 13.6567 0.900479 13.5401 1.18891 13.5401H3.94004C4.25805 13.5401 4.52429 13.6567 4.73876 13.8899C4.95323 14.1231 5.06046 14.4014 5.06046 14.7249C5.06046 15.0709 4.95323 15.3605 4.73876 15.5937C4.52429 15.8269 4.25805 15.9435 3.94004 15.9435H1.18891C0.870897 15.9435 0.593565 15.8212 0.356908 15.5768C0.120251 15.3323 0.00192261 15.0483 0.00192261 14.7249ZM3.94004 5.12267C3.94004 4.79921 4.04358 4.52465 4.25065 4.29898C4.51689 4.06579 4.79423 3.9492 5.08265 3.9492C5.39326 3.9492 5.6632 4.06579 5.89246 4.29898L7.83379 6.28486C8.05565 6.54814 8.16659 6.82647 8.16659 7.11984C8.16659 7.45834 8.05935 7.74043 7.84488 7.96609C7.63041 8.19176 7.37157 8.3046 7.06835 8.3046C6.77992 8.3046 6.50259 8.188 6.23635 7.95481L4.25065 6.00278C4.04358 5.74702 3.94004 5.45365 3.94004 5.12267ZM6.30291 21.3708C6.30291 21.0323 6.41754 20.7577 6.64681 20.5471C6.85388 20.3365 7.12382 20.2312 7.45662 20.2312H10.5738L14.2568 16.7107C14.3751 16.613 14.5083 16.613 14.6562 16.7107L18.3946 20.2312H21.6671C21.9851 20.2312 22.2569 20.3421 22.4825 20.564C22.708 20.7859 22.8208 21.0549 22.8208 21.3708C22.8208 21.6943 22.708 21.9726 22.4825 22.2058C22.2569 22.439 21.9851 22.5556 21.6671 22.5556H17.6624C17.5441 22.5556 17.4295 22.5255 17.3186 22.4653L14.4676 19.7347L11.6388 22.4653C11.5426 22.5255 11.4317 22.5556 11.306 22.5556H7.45662C7.13861 22.5556 6.86682 22.439 6.64126 22.2058C6.4157 21.9726 6.30291 21.6943 6.30291 21.3708ZM7.40115 14.7249C7.40115 15.8908 7.6452 16.9515 8.13331 17.9068C8.16289 18.0497 8.26273 18.1212 8.43283 18.1212H10.6626C10.7513 18.1212 10.8105 18.0873 10.8401 18.0196C10.8697 17.9519 10.8623 17.8767 10.8179 17.794C10.0635 16.8687 9.68637 15.8457 9.68637 14.7249C9.68637 13.3709 10.1597 12.2199 11.1063 11.2721C12.0529 10.3243 13.1918 9.85043 14.523 9.85043C15.8468 9.85043 16.9765 10.3243 17.912 11.2721C18.8476 12.2199 19.3153 13.3709 19.3153 14.7249C19.3153 15.8532 18.9419 16.8762 18.1949 17.794C18.1432 17.8767 18.1302 17.9519 18.1561 18.0196C18.182 18.0873 18.243 18.1212 18.3391 18.1212H20.5911C20.7464 18.1212 20.8388 18.0497 20.8684 17.9068C21.3565 16.9815 21.6006 15.9209 21.6006 14.7249C21.6006 13.747 21.412 12.8142 21.0348 11.9266C20.6576 11.0389 20.1529 10.2736 19.5206 9.6304C18.8883 8.98724 18.1358 8.47573 17.2631 8.09585C16.3904 7.71598 15.4771 7.52604 14.523 7.52604C13.5616 7.52604 12.6427 7.71598 11.7664 8.09585C10.89 8.47573 10.1319 8.98724 9.49224 9.6304C8.85252 10.2736 8.34408 11.0389 7.96691 11.9266C7.58974 12.8142 7.40115 13.747 7.40115 14.7249ZM13.3472 3.9492V1.18476C13.3472 0.838734 13.4581 0.554768 13.68 0.332861C13.9018 0.110954 14.1828 0 14.523 0C14.8558 0 15.1313 0.112834 15.3495 0.338503C15.5677 0.564171 15.6767 0.846256 15.6767 1.18476V3.9492C15.6767 4.29522 15.5677 4.57919 15.3495 4.8011C15.1313 5.023 14.8558 5.13396 14.523 5.13396C14.1828 5.13396 13.9018 5.023 13.68 4.8011C13.4581 4.57919 13.3472 4.29522 13.3472 3.9492ZM20.8573 7.11984C20.8573 6.81895 20.9646 6.54062 21.179 6.28486L23.0982 4.29898C23.3274 4.06579 23.6048 3.9492 23.9302 3.9492C24.2556 3.9492 24.5292 4.06391 24.7511 4.29334C24.9729 4.52277 25.0839 4.79921 25.0839 5.12267C25.0839 5.4687 24.9803 5.76207 24.7732 6.00278L22.7765 7.95481C22.525 8.188 22.2477 8.3046 21.9445 8.3046C21.6264 8.3046 21.3658 8.19364 21.1624 7.97174C20.959 7.74983 20.8573 7.46586 20.8573 7.11984ZM23.9523 14.7249C23.9523 14.4014 24.0577 14.1231 24.2685 13.8899C24.4793 13.6567 24.74 13.5401 25.0506 13.5401H27.835C28.153 13.5401 28.4266 13.6567 28.6559 13.8899C28.8852 14.1231 28.9998 14.4014 28.9998 14.7249C28.9998 15.0558 28.8852 15.3417 28.6559 15.5824C28.4266 15.8231 28.153 15.9435 27.835 15.9435H25.0506C24.7326 15.9435 24.47 15.8269 24.263 15.5937C24.0559 15.3605 23.9523 15.0709 23.9523 14.7249Z" fill="white"/>
</svg>
