<svg width="28" height="25" viewBox="0 0 28 25" fill="none" xmlns="http://www.w3.org/2000/svg">
<path d="M0.00320435 14.1419C0.00320435 13.8208 0.118721 13.5581 0.349754 13.3538C0.551908 13.1494 0.81543 13.0473 1.14032 13.0473H3.80442C4.11487 13.0473 4.37117 13.1513 4.57333 13.3592C4.77548 13.5672 4.87656 13.8281 4.87656 14.1419C4.87656 14.4702 4.77368 14.7457 4.56791 14.9683C4.36215 15.1908 4.10765 15.3021 3.80442 15.3021H1.14032C0.82987 15.3021 0.562738 15.1872 0.338924 14.9573C0.115111 14.7275 0.00320435 14.4556 0.00320435 14.1419ZM3.80442 4.96935C3.80442 4.64098 3.90189 4.37828 4.09682 4.18126C4.32786 3.94775 4.5986 3.831 4.90905 3.831C5.24116 3.831 5.50107 3.94775 5.68879 4.18126L7.56232 6.08581C8.09658 6.59661 8.09658 7.12201 7.56232 7.662C7.34573 7.88091 7.09664 7.99037 6.81507 7.99037C6.56238 7.99037 6.30247 7.88091 6.03534 7.662L4.09682 5.75744C3.90189 5.54583 3.80442 5.28313 3.80442 4.96935ZM6.07865 20.4685C6.07865 20.162 6.19417 19.892 6.4252 19.6585C6.63458 19.4469 6.89449 19.3411 7.20494 19.3411H10.9195C11.0423 19.3411 11.1506 19.3703 11.2444 19.4286L13.9627 22.0228L16.7242 19.4286C16.8036 19.3703 16.9156 19.3411 17.0599 19.3411H20.872C21.1824 19.3411 21.4478 19.4505 21.668 19.6694C21.8882 19.8884 21.9983 20.1547 21.9983 20.4685C21.9983 20.7823 21.8882 21.0504 21.668 21.273C21.4478 21.4955 21.1824 21.6068 20.872 21.6068H17.7747L14.1468 24.9234C14.0024 25.0255 13.876 25.0255 13.7677 24.9234L10.2048 21.6068H7.20494C6.89449 21.6068 6.62916 21.4955 6.40896 21.273C6.18876 21.0504 6.07865 20.7823 6.07865 20.4685ZM7.16162 14.1419C7.16162 15.3021 7.38543 16.3237 7.83306 17.2067C7.89804 17.3307 8.00273 17.3927 8.14712 17.3927H10.3022C10.3961 17.3927 10.4538 17.3635 10.4755 17.3052C10.4972 17.2468 10.4683 17.1775 10.3889 17.0972C9.70299 16.2288 9.36005 15.2437 9.36005 14.1419C9.36005 12.8576 9.81489 11.7648 10.7246 10.8636C11.6343 9.96242 12.7317 9.51182 14.0168 9.51182C15.2875 9.51182 16.3759 9.96424 17.282 10.8691C18.188 11.7739 18.6411 12.8649 18.6411 14.1419C18.6411 15.2437 18.2981 16.2288 17.6123 17.0972C17.5328 17.1775 17.504 17.2468 17.5256 17.3052C17.5473 17.3635 17.605 17.3927 17.6989 17.3927H19.8757C20.0273 17.3927 20.1211 17.3307 20.1572 17.2067C20.6337 16.2945 20.872 15.2729 20.872 14.1419C20.872 13.2151 20.6897 12.323 20.3251 11.4656C19.9605 10.6082 19.4714 9.86938 18.8577 9.24912C18.244 8.62887 17.5148 8.13449 16.6701 7.76598C15.8254 7.39748 14.9409 7.21322 14.0168 7.21322C13.0927 7.21322 12.2083 7.39748 11.3635 7.76598C10.5188 8.13449 9.78962 8.62887 9.17594 9.24912C8.56226 9.86938 8.07312 10.6082 7.70852 11.4656C7.34392 12.323 7.16162 13.2151 7.16162 14.1419ZM12.8905 3.85289V1.13835C12.8905 0.824577 13.0006 0.556407 13.2208 0.333844C13.441 0.111281 13.7064 0 14.0168 0C14.3273 0 14.5926 0.111281 14.8128 0.333844C15.033 0.556407 15.1431 0.824577 15.1431 1.13835V3.85289C15.1431 4.16667 15.033 4.43484 14.8128 4.6574C14.5926 4.87996 14.3273 4.99124 14.0168 4.99124C13.7064 4.99124 13.441 4.87996 13.2208 4.6574C13.0006 4.43484 12.8905 4.16667 12.8905 3.85289ZM20.1356 6.87391C20.1356 6.54553 20.2367 6.28284 20.4388 6.08581L22.3232 4.18126C22.5109 3.94775 22.7708 3.831 23.1029 3.831C23.4206 3.831 23.6841 3.94228 23.8935 4.16484C24.1028 4.38741 24.2075 4.65558 24.2075 4.96935C24.2075 5.29772 24.1101 5.56042 23.9151 5.75744L21.9983 7.662C21.7311 7.88091 21.464 7.99037 21.1969 7.99037C20.8937 7.99037 20.641 7.88274 20.4388 7.66747C20.2367 7.4522 20.1356 7.18768 20.1356 6.87391ZM23.1246 14.1419C23.1246 13.8281 23.2256 13.5672 23.4278 13.3592C23.63 13.1513 23.8863 13.0473 24.1967 13.0473H26.8716C27.1821 13.0473 27.4474 13.1531 27.6676 13.3647C27.8878 13.5763 27.9979 13.8354 27.9979 14.1419C27.9979 14.4556 27.8878 14.7275 27.6676 14.9573C27.4474 15.1872 27.1821 15.3021 26.8716 15.3021H24.1967C23.8935 15.3021 23.639 15.1908 23.4332 14.9683C23.2274 14.7457 23.1246 14.4702 23.1246 14.1419Z" fill="white"/>
</svg>
