<svg width="25" height="23" viewBox="0 0 25 23" fill="none" xmlns="http://www.w3.org/2000/svg">
<path d="M7.65137 11.5H0.78125C0.351562 11.5 0 11.8516 0 12.2813V13.8438C0 14.2735 0.351562 14.625 0.78125 14.625H7.72461C8.50098 14.625 9.22852 15.1573 9.35547 15.9239C9.5166 16.9004 8.76465 17.75 7.8125 17.75C7.12402 17.75 6.53809 17.3008 6.32813 16.6807C6.22559 16.3731 5.9082 16.1875 5.58594 16.1875H3.98438C3.50586 16.1875 3.12012 16.6172 3.20801 17.086C3.62793 19.2393 5.53223 20.875 7.80762 20.875C10.5957 20.875 12.8223 18.4287 12.4561 15.5723C12.1582 13.209 10.0293 11.5 7.65137 11.5ZM0.78125 9.93753H17.1875C20.1025 9.93753 22.4023 7.26175 21.7676 4.23929C21.3965 2.47171 19.9658 1.04105 18.1982 0.669954C15.4932 0.103548 13.0664 1.88577 12.5879 4.35648C12.4951 4.82523 12.8857 5.25003 13.3594 5.25003H14.9609C15.2881 5.25003 15.6006 5.06449 15.7031 4.75687C15.9131 4.13675 16.499 3.68753 17.1875 3.68753C18.1348 3.68753 18.8916 4.53714 18.7305 5.5137C18.6035 6.28031 17.8809 6.81253 17.0996 6.81253H0.78125C0.351562 6.81253 0 7.1641 0 7.59378V9.15628C0 9.58597 0.351562 9.93753 0.78125 9.93753ZM19.5312 11.5H11.8994C12.8418 12.3106 13.5205 13.3946 13.8428 14.625H19.5312C20.8252 14.625 21.875 15.6748 21.875 16.9688C21.875 18.2627 20.8252 19.3125 19.5312 19.3125C18.6572 19.3125 17.9053 18.8291 17.5 18.1211C17.3584 17.877 17.0752 17.75 16.792 17.75H15.1416C14.6094 17.75 14.2139 18.2774 14.3945 18.7803C15.2637 21.251 17.8369 22.9209 20.7129 22.3106C22.7246 21.8858 24.3799 20.2793 24.8486 18.2725C25.6836 14.6983 22.9736 11.5 19.5312 11.5Z" fill="white"/>
</svg>
